<svg xmlns="http://www.w3.org/2000/svg" viewBox="0 0 1080 1080" xml:space="preserve"><path fill="#EDF1F7" d="M567 1081c-187.478 0-374.457-.012-561.435.087-3.63.002-4.67-.623-4.668-4.521.11-356.959.113-713.918-.015-1070.877C.88 1.507 1.882.897 5.81.898c356.792.11 713.584.11 1070.376 0 3.92 0 4.934.596 4.933 4.787-.129 356.792-.13 713.584.005 1070.376.001 4.395-1.115 5.041-5.184 5.039-169.48-.117-338.96-.1-508.94-.1z"/><path fill="#1A9DF4" d="M540.165 1036.821c-22.845.946-45.414-.929-67.857-4.07-57.911-8.106-112.823-25.686-164.333-53.433-88.689-47.773-156.99-116.078-204.792-204.75-27.033-50.145-44.47-103.565-52.826-159.878-6.611-44.553-7.206-89.233-1.65-133.989 11.306-91.068 44.947-173.018 101.655-245.047 70.844-89.985 162.2-148.891 273.424-176.627 43.73-10.906 88.235-15.508 133.237-13.806 115.184 4.357 217.387 43.224 305.285 117.872 83.12 70.591 136.97 159.57 162.305 265.656 10.905 45.663 14.386 92.078 12.128 138.896-1.179 24.457-4.197 48.744-9.52 73.07-3.446.764-4.765-1.982-6.532-3.745-34.056-33.964-68.042-68-102.068-101.994-40.384-40.346-80.662-80.798-121.408-121.25-.457-.314-.645-.427-1.095-.733-.423-.33-.585-.468-.975-.823-.372-.364-.517-.512-.878-.878-.65-.655-1.13-1.038-1.89-1.581-.585-.48-.878-.801-1.33-1.431-.695-1.551-1.63-2.501-2.571-3.441-32.097-32.05-64.035-64.259-96.57-96.347a10.363 10.363 0 0 1-1.067-.857c-.541-.581-.834-.927-1.366-1.519a17.36 17.36 0 0 0-1.04-.928c-.47-.378-.661-.53-1.14-.928-9.14-11.606-20.756-17.498-35.164-17.89-2.867-.079-4.923-1.732-6.944-3.56-9.49-8.587-20.14-8.503-29.418.166-5.038 4.707-10.885 4.824-16.03.322-10.745-9.402-20.156-9.347-30.47.18-4.344 4.013-8.321 3.972-12.67-.13-9.807-9.254-20.806-9.303-30.613-.137-4.503 4.208-8.468 4.25-13.19.14-10.998-9.569-19.944-9.448-30.832.416-3.726 3.375-9.71 3.706-13.798.748-.81-.587-1.507-1.312-2.249-1.982-9.11-8.238-19.878-8.35-28.615.027-2.716 2.604-5.53 3.803-9.254 4.049-14.97.989-26.709 7.53-34.409 20.726-3.351 5.743-5.181 11.846-5.16 18.538.05 15.498-.102 30.999.087 46.495.057 4.685-1.507 7.733-5.57 10.19-13.277 8.032-18.866 20.306-19.647 35.522-.372 7.252.017 14.66-2.307 22.103-3.106 2.415-4.445-.359-5.908-1.769-6.686-6.445-13.184-13.083-19.752-19.65-1.408-1.407-2.78-2.85-4.739-4.233-4.249-5.496-9.497-7.449-16-7.027-5.3.344-10.64-.084-15.955.13-7.347.294-11.772 4.576-12.014 11.928-.285 8.638-.171 17.288-.031 25.931.08 4.923 2.277 8.77 6.766 10.782 4.194 1.88 5.224 5.02 5.197 9.214-.089 13.632.088 27.266-.066 40.896-.164 14.5 4.614 26.69 16.25 36.302.453.47.625.66 1.278 1.42.803.928 1.13 1.283 1.73 1.867.44.401.61.567 1.014 1.002 3.377 4.363 7.42 7.597 10.848 11.413 1.238 1.38 3.301 2.528 1.92 5.212-3.353 1.384-6.572.698-9.693 1.107-19.305 2.53-32.845 18.173-33.356 38.698-.15 5.981-.028 11.967-.044 17.95-.008 3.087-1.054 5.433-3.869 6.976-9.87 5.413-14.796 14.027-15.78 25.019a123.132 123.132 0 0 0-.025 21.906c.869 9.766 5.21 17.751 13.437 23.928.44.474.61.668 1.252 1.455 4.698 5.66 9.704 9.965 14.236 14.73 1.58 1.662 3.411 3.126 4.405 5.745.965 8.664.43 16.961.491 25.247.102 13.6.17 27.206-.035 40.804-.096 6.392 1.649 11.742 6.859 16.225.885.856 1.424 1.462 2.245 2.328.465.435.641.616 1.058 1.082 5.398 6.616 11.52 12.013 17.239 17.8 11.33 11.463 22.824 22.765 34.115 34.266 1.468 1.494 4.598 2.876 1.756 6.13-3.463.969-6.639.615-9.782.677-2.81.054-4.343 1.136-4.367 4.114-.087 10.795-.12 21.59.031 32.383.026 1.832.157 3.887 2.838 3.76 2.604-.125 2.561-2.204 2.679-4.008.183-2.817-.012-5.647.121-8.467.264-5.556 1.4-6.621 6.762-7.119 2.148-.2 5.982.945 5.99-1.634.009-3.218-3.87-1.803-6.07-2.027-5.198-.529-6.63-1.817-6.617-6.656.013-4.801 1.515-6.352 6.66-6.608 2.982-.148 5.977-.21 9.382.331 1.305.38 2.047.867 2.94 1.888 2.102 6.036.955 11.88 1.2 17.644.178 4.14.053 8.292.05 12.438-.002 3.048 1.243 4.628 4.43 4.592 4.31-.048 8.625.204 12.928-.153 1.114-.092 2.557-.19 2.359-1.855-.144-1.204-1.344-1.292-2.319-1.447-1.48-.236-2.98-.143-4.469-.222-5.913-.312-7.118-1.585-7.246-7.622-.139-6.575.735-7.764 6.559-8.347 2.854.519 4.408 2.32 6.05 3.963 47.014 47.001 94.025 94.006 141.017 141.03 1.39 1.391 3.07 2.635 3.172 5.17z"/><path fill="#1887C5" d="M376.614 871.881c-.949-.078-1.664-.465-2.749-1.022-1.046-3.58-3.026-5.723-6.656-6.742-17.311-17.52-34.443-34.738-51.538-51.992-1.368-1.381-3.238-2.44-3.534-5 1.305-1.397 2.802-1.288 4.311-1.243 27.947.834 55.9.354 83.85.277 14.127-.039 19.919-6.244 19.95-20.326.044-19.8.028-39.602.003-59.403-.01-7.516-.15-7.674-7.397-7.68-34.278-.023-68.555-.013-102.833-.007-2.832 0-5.666.003-8.817 1.182-6.37-5.69-12.592-11.146-17.732-17.972 1.115-.947 2.307-.994 3.416-.597 7.098 2.539 14.469 1.944 21.78 1.945 157.592.01 315.184-.028 472.776.09 10.602.009 19.233-3.257 25.775-11.618 3.805-4.864 5.864-10.447 6.019-16.635.175-6.994.235-13.997-.004-20.988-.352-10.337-4.638-18.83-13.428-24.348-5.078-3.188-6.862-7.202-6.55-12.88.265-4.816.09-9.66.043-14.49-.208-21.38-16.38-37.543-37.755-37.731-6.997-.062-13.996.11-20.99-.068-5.694-.146-7.184-1.744-7.162-7.182.022-5.357 1.53-6.901 7.307-7.081 5.324-.165 10.64-.051 15.93-1.026 18.848-3.474 32.289-18.962 32.619-38.167.255-14.823.144-29.653.008-44.478-.045-4.925 1.07-8.506 5.986-10.864 5.599-2.685 6.934-8.169 7.028-13.946.158-9.645.217-19.289-.71-29.307 3.063-.689 4.191 1.745 5.754 3.307 73.617 73.551 147.196 147.14 220.784 220.719 1.411 1.41 2.885 2.76 4.63 4.292-.724 11.765-4.198 22.84-7.318 33.962-25.024 89.19-71.603 165.464-138.942 228.839-65.441 61.588-142.503 101.894-230.012 122.053a450.394 450.394 0 0 1-88.277 11.34c-7.145.206-14.27 1.208-21.792.248-1.77-1.81-3.088-3.524-4.603-5.042-47.797-47.868-95.613-95.717-143.592-143.846.69-2.372 4.93-1.403 4.253-4.103-.707-2.82-3.943-1.564-6.09-1.741-5.514-.456-6.961-1.797-6.88-6.889.076-4.742 1.5-5.832 6.895-6.372 2.476-.248 6.905 1.666 6.913-2.135.005-2.656-4.443-1.326-6.92-1.581-1.808-.186-3.65-.042-5.476-.035-6.4.024-6.4.026-8.273 6.283z"/><path fill="#FEFEFD" d="M795.809 412.13c3.005 7.243 1.539 14.832 1.819 22.266.137 3.66.142 7.34-.052 10.996-.34 6.43-3.33 11.297-9.645 13.13-2.944.855-2.922 2.427-2.916 4.672.039 15.332.066 30.664.01 45.996-.093 24.916-17.496 42.338-42.481 42.597-2.5.026-5.035.275-7.492-.052-4.68-.623-6.358.824-6.164 5.848.163 4.197.865 5.614 5.454 5.568 9.8-.096 19.691-1.216 29.416.704 18.109 3.577 31.017 19.208 31.255 37.597.087 6.665.146 13.335-.039 19.996-.074 2.677.747 4.096 3.181 5.402 11.293 6.063 16.77 15.736 16.84 28.503.036 6.332.083 12.666-.009 18.998-.243 16.835-13.13 30.077-29.901 30.79-1.664.071-3.332.081-4.998.081-159.15.004-318.3-.006-477.451.038-6.41.002-12.633-.498-18.794-3.544-.346-.101-.524-.039-.55.05-.4-.013-.71-.213-1.113-.74-11.092-7.888-15.48-18.597-14.918-31.67.264-6.148-.328-12.311.454-18.459 1.357-10.676 6.674-18.733 16.11-23.775 2.86-1.528 3.596-3.277 3.507-6.237-.186-6.156-.144-12.322-.037-18.481.39-22.541 17.317-39.267 39.805-39.406 1.332-.008 2.664-.02 4.453-.1 5.08-2.813 10.163-.964 15.007-1.507 2.151-.24 4.4-.043 4.709-3.138.358-3.59-1.453-4.75-4.685-4.636-6.824.24-13.56-.417-20.175-2.137-2.895-.752-5.78-1.56-8.025-4.378-.242-.331-.301-.259-.257-.242-.526-.258-1.159-.358-1.866-.907-.134-.286-.186-.101-.09-.093-.288-.078-.6-.278-.985-.835-13.283-10.21-18.546-23.584-18.057-39.856.415-13.809.04-27.64.131-41.46.018-2.683-.135-4.435-3.366-5.475-6.034-1.943-8.9-6.683-8.94-13.002-.054-8.492-.115-16.987.017-25.477.129-8.244 5.64-13.701 13.856-13.836 6.327-.104 12.658.08 18.983-.054 6.11-.128 10.56 2.39 13.704 7.945 2.411 2.54 3.144 5.333 3.133 8.455-.024 6.826.018 13.652-.021 20.479-.042 7.231-2.826 12.974-9.306 16.498-2.703 1.47-3.678 3.53-3.67 6.47.038 14.485-.226 28.974.114 43.454.25 10.652 7.476 17.639 18.072 18.138 12.898.607 12.697.593 13.621-12.215 1.676-23.224 3.29-46.451 4.958-69.675.096-1.338.258-2.654 1.321-4.136 1.212-10.594 1.7-20.924 3.13-31.122 1.846-13.165 8.927-23.179 20.654-29.525 2.88-1.558 3.456-3.334 3.433-6.258-.12-15.327-.097-30.656-.046-45.984.083-24.55 17.71-42.579 42.256-43.188 2.443-.06 4.21-.507 5.99-2.547 8.912-10.223 23.226-10.371 32.566-.583 4.226 4.429 9.716 4.393 13.872-.089 8.841-9.535 23.372-9.458 32.367.172 3.952 4.231 7.153 4.238 10.989.024 8.903-9.78 23.755-9.722 32.715.13 3.66 4.025 6.961 4.034 10.59.031 8.974-9.898 23.543-9.973 32.698-.168 3.987 4.27 9.601 4.293 13.525.056 9.103-9.83 23.5-9.805 32.607.236 1.72 1.895 3.35 2.723 5.928 2.764 14.808.234 26.639 6.333 35.55 18.63.59.373.875.607 1.233 1.13.095.26.083.073-.008.094.62.265.68.92.974 1.795.125.288.09.2.053.23 2.303 1.619 3.503 3.954 4.228 6.587 1.599 5.806 2.616 11.691 2.607 17.743-.02 13.495.049 26.991-.042 40.486-.026 3.832 1.2 6.442 4.516 8.701 11.82 8.054 18.53 19.15 19.652 33.665 2.18 28.21 3.983 56.443 6.022 84.66.564 7.798.978 15.615 1.82 23.4.38 3.522 1.847 5.095 5.355 5.002 3.826-.102 7.672.267 11.464-.493 7.813-1.564 13.371-7.186 13.682-15.098.613-15.647.227-31.316.186-46.975-.007-2.624-1.22-4.373-3.475-5.59-6.28-3.388-8.599-8.869-8.487-15.776.124-7.662-.105-15.33.072-22.991.23-10.027 5.946-15.765 15.92-16.017 6.327-.16 12.66-.083 18.992-.01 3.089.036 5.984.58 8.387 3.472.33.656.497.882 1.007 1.054.825.537 1.573.887 2.1 1.898.163.25.178.182.143.179.236.212.481.452.844.932.142.216.045.155.004.195zM300.818 720.463c-.183-2.977.948-3.796 3.507-3.791 37.957.074 75.914.073 113.871.004 2.75-.005 3.765.723 3.752 3.642-.106 23.306.055 46.614-.117 69.92-.074 10.04-7.105 17.26-17.509 17.362-28.631.28-57.267.118-85.9.07-1.808-.003-3.615-.532-5.837-.859-.415-.042-.479.017-.462.058-.513-.303-1.147-.362-1.904-.848-6.812-4.692-9.485-10.814-9.386-18.853.273-22.078.075-44.162-.015-66.705z"/><path fill="#1887C5" d="M791.98 407.847c-3.419-1.573-7.106-2.117-11.028-2.004-5.823.166-11.656-.053-17.48.074-7.886.173-13.451 5.684-13.588 13.594-.15 8.655-.085 17.315-.02 25.972.05 6.376 3.229 10.821 9.149 12.891 2.548.891 3.17 2.053 3.151 4.57-.114 15.816.029 31.634-.096 47.45-.082 10.366-7.427 17.89-17.796 18.43-3.82.199-7.678-.194-11.48.13-3.627.31-4.584-1.412-4.803-4.562-1.608-23.075-3.296-46.145-4.945-69.217-1.044-14.607-1.625-29.264-3.223-43.81-1.466-13.345-8.46-23.715-20.241-30.34-3.132-1.76-4.024-3.639-3.987-6.995.16-14.483 0-28.97.094-43.454.052-7.947-1.229-15.556-4.85-23.076 2.157-.693 3.18 1.061 4.427 2.307a147066.01 147066.01 0 0 1 93.77 93.765c1.153 1.154 2.616 2.114 2.946 4.275z"/><path fill="#1988C6" d="M359.738 440.821c-.854 18.385-1.954 36.64-3.192 54.886-.664 9.78-1.731 19.536-2.27 29.321-.192 3.502-1.738 4.053-4.677 3.905-3.818-.192-7.659.09-11.477-.1-9.86-.491-17.603-7.604-17.844-17.41-.405-16.463-.111-32.943-.198-49.415-.01-2.063.822-2.705 2.694-3.34 6.805-2.31 10.153-7.367 9.967-14.453-.256-9.786 1.023-19.62-.908-29.777 7.4 5.311 13.334 12.637 20.16 19.036 2.52 2.363 4.963 4.807 7.745 7.347z"/><path fill="#F5FAFC" d="M288.342 900.196c-.187-1.729-.226-3.06-.371-4.381-.27-2.44.457-3.908 3.232-3.526 2.182.301 5.457-1.238 5.242 3.115-.025.496.015.999.07 1.494.271 2.46 1.003 4.625 3.85 5.097 2.09.348 4.194.074 5.216-1.986 1.281-2.584 1.17-5.382-1.173-7.29-3.082-2.51-6.513-4.587-9.728-6.94-4.06-2.97-6.995-6.538-6.724-12.038.364-7.396 5.19-11.106 14.329-10.756 7.374.281 12.087 5.189 11.758 12.036-.09 1.868-.652 3.01-2.568 2.634-1.86-.365-4.504 1.559-5.456-1.674-.232-.789-.231-1.645-.44-2.443-.621-2.379-2.078-3.689-4.654-3.627-1.774.043-3.395.324-3.935 2.305-.618 2.265-.219 4.398 1.748 5.821 3.23 2.338 6.624 4.446 9.873 6.757 3.34 2.377 5.983 5.245 6.377 9.64.666 7.414-2.848 12.767-9.486 14.292-8.06 1.852-14.13-1.04-17.16-8.53z"/><path fill="#F7FBFD" d="M340.484 874.405c2.313 10.124 4.525 19.842 6.64 29.582.289 1.325 2.056 3.749-.719 3.794-2.519.04-6.146 2.311-7.674-1.846-.68-1.849-.985-3.873-1.202-5.846-.293-2.667-1.625-3.258-4.23-3.507-4.501-.429-7.056.848-6.928 5.61.151 5.609-3.037 6.417-7.655 5.89-2.042-.234-2.43-.695-1.938-2.705 3.204-13.067 6.296-26.162 9.36-39.262.38-1.623 1.264-1.988 2.78-2.168 8.755-1.04 9.29-.608 11.566 10.458z"/><path fill="#F8FBFC" d="M376.467 872.633c.515-8.646.515-8.646 9.024-8.646 3.647 0 7.297.074 10.941-.026 2.224-.061 3.734.051 3.675 3.052-.054 2.74-.721 3.998-3.639 3.705-1.97-.198-4.015.217-5.957-.087-4.743-.742-5.752 1.365-5.64 5.738.095 3.708.759 5.625 4.878 4.989 1.619-.25 3.314.042 4.966-.06 2.602-.162 4.337.057 4.3 3.571-.037 3.408-1.875 3.253-4.126 3.15-.662-.03-1.326.014-2.426.091-2.763.232-6.398-1.39-7.085 1.1-.969 3.512-.25 7.54.067 11.321.087 1.032 1.686.728 2.634.744 2.662.047 5.328.102 7.986-.001 2.417-.094 4.052.08 4.058 3.33.006 3.074-1.246 3.532-3.85 3.457-5.32-.155-10.658-.252-15.967.029-3.309.175-3.819-1.22-3.784-4.066.125-10.314.039-20.631-.055-31.39zM366.555 863.89c4.64-.208 8.559-.069 6.985 6.39-4.036.417-8.03.49-12.019.415-4.33-.08-3.013 3.148-3.022 5.319-.009 2.181-1.273 5.42 3.05 5.288 2.492-.076 5 .142 7.48-.043 2.817-.21 3.758.824 3.756 3.678-.003 2.95-1.502 3.055-3.755 3.117-10.605.291-10.604.34-10.604 11.118 0 1.663-.195 3.354.039 4.983.529 3.68-1.523 3.833-4.387 3.954-3.274.138-4.218-.885-4.166-4.162.188-11.972.195-23.951-.004-35.923-.056-3.343 1.004-4.3 4.21-4.1 3.976.249 7.98.043 12.437-.034z"/><path fill="#1988C6" d="M318.116 547.133c9.727 4.468 20.137 5.311 30.671 4.556 5.344-.383 4.368 2.876 4.44 5.927.073 3.05.64 5.968-4.326 5.496-5.279-.502-10.64-.132-16.428-.212-4.645-5.598-10.825-9.311-14.357-15.767z"/><path fill="#1887C5" d="M794.945 410.742c-.555-.192-1.145-.716-1.873-1.508.791-.157 1.613.1 1.873 1.508zM310.184 806.063c.441-.09 1.038.106 1.795.574-.44.086-1.04-.1-1.795-.574zM690.898 306.83c-.39-.141-.767-.616-1.174-1.41.375.147.781.612 1.174 1.41z"/><path fill="#1988C6" d="M316.245 545.98c.469-.099 1.055.116 1.783.614-.46.089-1.063-.106-1.783-.614z"/><path fill="#1887C5" d="M689.802 304.977c-.212.053-.511-.164-.886-.666.216-.058.508.169.886.666zM282.154 701.047c.242-.102.606.06 1.04.515-.26.113-.59-.07-1.04-.515z"/><path fill="#1988C6" d="M315.163 545.041c.232-.091.587.08 1.022.54-.246.1-.573-.089-1.022-.54z"/><path fill="#1887C5" d="M795.858 411.897c-.207.055-.503-.145-.865-.62.214-.063.495.15.865.62z"/><path fill="#FEFFFD" d="M722 716.722c18.654 0 36.809.089 54.961-.075 3.517-.032 4.49 1.015 4.467 4.494-.144 22.65-.009 45.302-.102 67.953-.047 11.296-7.042 18.509-18.376 18.574-27.98.16-55.961.16-83.941-.001-11.239-.065-18.202-6.965-18.29-18.076-.182-22.982.01-45.968-.151-68.95-.026-3.612 1.54-3.977 4.472-3.963 18.82.088 37.64.044 56.96.044z"/><path fill="#F6F9FA" d="M442.59 870.32c1.589 9.587 4.027 18.6 4.969 27.94 1.463-10.32 3.156-20.615 4.3-30.97.633-5.744 4.68-3.109 7.113-3.125 3.844-.027 1.38 2.94 1.133 4.384-2.014 11.8-4.42 23.535-6.282 35.357-.668 4.244-3.03 4.243-6.222 4.17-2.964-.07-5.233.177-5.739-4.062-.9-7.542-2.67-14.98-4.278-23.531-1.377 8.478-2.715 15.867-3.72 23.3-.437 3.23-1.623 4.707-5.039 4.28-2.901-.362-6.068 1.074-6.864-3.964-1.865-11.813-4.538-23.497-6.58-35.286-.234-1.345-2.933-4.623 1.37-4.744 2.912-.082 6.632-1.712 7.227 3.9 1.047 9.884 2.843 19.688 4.4 30.026 1.63-9.608 3.028-18.726 4.805-27.77.476-2.423-.834-6.074 4.178-6.406 5.289-.35 4.238 3.404 5.228 6.5z"/><path fill="#FBFCFC" d="M669.771 901.355c-2.837-6.904-5.532-13.447-8.392-20.392 0 7.834-.142 15.181.065 22.518.092 3.233-.44 4.696-4.224 4.676-3.644-.018-4.364-1.189-4.306-4.563.203-11.661.015-23.329.153-34.992.019-1.588-1.515-4.58 1.954-4.506 2.797.06 6.277-1.72 7.89 2.827 2.612 7.363 5.693 14.56 8.621 21.81.279.69.146 1.713 1.46 2.05 0-7.41.264-14.74-.103-22.04-.205-4.096 1.223-4.993 5.002-4.87 2.972.098 3.56 1.14 3.536 3.812-.112 11.997.001 23.996-.111 35.993-.014 1.501 1.252 4.34-1.785 4.185-2.772-.142-6.56 2.097-8.116-2.444-.431-1.258-.997-2.47-1.644-4.064z"/><path fill="#FAFCFB" d="M591.99 900.92c0-11.298.136-22.108-.08-32.911-.066-3.357 1.015-4.278 4.206-4.08 4.14.258 8.31.034 12.466.09 4.376.06 8.517 1.1 10.373 5.472 1.984 4.668 1.772 9.525-1.538 13.653-1.222 1.524-2.145 2.209.082 3.596 2.379 1.483 2.572 4.121 2.5 6.675-.138 4.8.165 9.55 1.571 14.19-9.834 1.192-9.852 1.175-9.952-9.47-.072-7.716-1.06-8.858-7.217-9.164-2.875-.143-4.324.487-4.08 3.773.271 3.638-.177 7.331.128 10.964.3 3.56-.994 4.437-4.439 4.43-3.34-.005-4.502-1.051-4.037-4.236.119-.814.018-1.66.018-2.983z"/><path fill="#F5F9FA" d="M775.816 908.655c-5.838-1.796-8.631-5.607-8.715-11.186-.028-1.879-1.73-5.063 2.445-5.158 3.15-.072 6.496-.757 6.009 4.46-.242 2.587.994 4.935 4.142 5.287 2.13.238 4.174-.193 5.054-2.318 1.098-2.65.853-5.393-1.54-7.263-3.269-2.554-6.775-4.802-10.15-7.22-4.39-3.147-6.7-7.264-6-12.83.856-6.823 6.71-10.378 15.564-9.377 6.595.745 11.056 6.122 10.427 12.338-.173 1.708-.848 2.57-2.44 2.25-1.887-.379-4.463 1.503-5.574-1.525-.28-.762-.196-1.65-.403-2.448-.603-2.333-1.933-3.801-4.554-3.759-1.748.029-3.434.195-4.053 2.147-.708 2.234-.398 4.441 1.54 5.879 3.334 2.473 6.876 4.664 10.269 7.062 3.536 2.5 5.996 5.642 6.194 10.254.43 10.005-5.49 14.536-18.215 13.407z"/><path fill="#FEFEFD" d="M464 904.782c0-12.64.104-24.801-.074-36.958-.045-3.082.792-4.08 3.895-3.908 2.722.151 4.934-.016 4.517 3.837-.321 2.964.094 6-.107 8.985-.204 3.05.497 4.418 4.03 4.358 7.734-.13 7.738.087 7.738-7.497 0-1.499.238-3.044-.043-4.489-.95-4.88 1.635-5.464 5.585-5.186 2.258.158 2.763 1.034 2.755 3.044-.052 12.658-.124 25.318.038 37.975.045 3.522-2.05 3.076-4.209 3.063-2.116-.013-4.392.576-4.188-3.023.255-4.483-.132-9.003.127-13.485.182-3.143-.937-4.237-3.956-3.863a16.69 16.69 0 0 1-3.992.001c-3.166-.377-4.023 1.09-3.89 4.042.194 4.322.054 8.659.043 12.99-.005 1.654.22 3.833-2.347 3.23-2.062-.482-5.853 2.38-5.922-3.116z"/><path fill="#F7FAFA" d="M732.943 880.94c1.784 8.038 3.56 15.651 5.197 23.294.268 1.253 2.234 3.677-.93 3.618-2.453-.046-5.75 1.958-7.388-1.632-.604-1.323-.773-2.906-.868-4.388-.261-4.075-2.067-5.57-6.35-5.299-3.264.207-4.529 1.004-5.092 4.315-1.34 7.863-1.542 7.829-10.234 6.717 3.316-13.9 6.625-27.766 9.927-41.633.25-1.048.74-1.65 1.905-1.959 6.543-1.733 10.145.335 11.607 6.814a814.971 814.971 0 0 1 2.226 10.153z"/><path fill="#F8FBFB" d="M625.61 889c.001-7.488.122-14.478-.056-21.46-.074-2.867.9-3.705 3.693-3.61 5.65.192 11.315.184 16.965.005 2.735-.087 2.835 1.324 2.843 3.377.008 2.109-.26 3.6-2.91 3.394-1.819-.142-3.658-.024-5.488-.023-6.356.002-8.444 2.96-6.634 9.07.48 1.62 1.505 1.525 2.634 1.544 2.328.04 4.66.096 6.986 0 2.544-.105 4.406-.066 4.37 3.523-.033 3.386-1.817 3.314-4.112 3.201-.995-.049-1.996-.008-2.994-.008-6.895.001-6.895.001-6.894 6.734 0 6.568 0 6.568 6.635 6.57 1.83.001 3.669.119 5.487-.023 2.64-.206 2.935 1.266 2.92 3.385-.015 2.04-.089 3.47-2.833 3.386-5.818-.177-11.649-.197-17.464.008-2.899.102-3.23-1.27-3.18-3.603.109-4.988.033-9.98.033-15.47zM527.381 908.01c-3.137.177-2.758-1.771-2.76-3.379-.016-12.482.028-24.964-.041-37.446-.013-2.23.47-3.321 3.024-3.248 5.82.165 11.652.168 17.472-.002 2.57-.074 3.08 1.006 2.98 3.246-.088 1.966.013 3.697-2.78 3.525-2.32-.144-4.702.262-6.979-.084-4.586-.696-5.32 1.283-5.472 5.493-.174 4.767 1.65 5.758 5.71 5.233 1.473-.19 2.999.06 4.488-.05 2.514-.189 3.954.251 3.982 3.406.029 3.248-1.55 3.55-3.992 3.31-.164-.015-.332-.003-.499 0-10.117.122-10.04.119-9.557 10.125.11 2.284.643 3.37 3.098 3.206 2.32-.154 4.662-.114 6.987-.003 2.234.106 5.001-1.11 5.102 3.238.098 4.263-2.474 3.41-4.826 3.424-5.159.029-10.318.009-15.937.006zM497.61 870.191c-.659-4.738.563-6.808 5.462-6.31 4.776.486 9.642.19 14.465.071 2.354-.058 3.583.323 3.579 3.186-.005 2.946-1.08 3.803-3.797 3.576-1.983-.165-4.03.22-5.98-.082-4.487-.693-5.417 1.132-5.517 5.441-.108 4.664 1.513 5.83 5.669 5.284 1.8-.236 3.664.078 5.484-.063 2.607-.202 2.979 1.21 2.963 3.364-.016 2.075-.178 3.699-2.88 3.364-.655-.08-1.329-.012-1.995-.009-9.595.054-10.629 1.386-9.091 11.08.274 1.73.968 2.24 2.53 2.222 2.829-.035 5.668.146 8.484-.039 2.839-.185 4.157.438 4.144 3.753-.014 3.616-2.183 2.975-4.257 2.98-5.159.013-10.328-.196-15.472.077-3.205.17-3.892-1.013-3.851-3.975.152-11.147.06-22.297.06-33.92z"/><path fill="#FBFCFC" d="M702.017 873.189c-.008 10.618-.168 20.759.078 30.89.085 3.493-1.234 4.017-4.28 4.03-3.097.013-4.36-.635-4.275-4.072.235-9.466-.103-18.947.169-28.412.113-3.929-1.049-5.398-5.007-5.028-2.01.188-4.857 1.153-4.792-2.93.042-2.67.521-3.833 3.52-3.742 6.973.213 13.958.133 20.936.031 2.357-.034 3.604.33 3.621 3.192.018 2.982-1.168 3.457-3.807 3.658-2.052.156-5.163-1.966-6.163 2.383z"/><path fill="#FBFDFC" d="M740.994 885c0-6.332.18-12.172-.064-17.994-.152-3.61 2.096-2.995 4.202-3.016 2.164-.02 4.274-.453 4.21 3.068-.181 9.828.086 19.665-.136 29.492-.082 3.603.74 5.323 4.662 4.831 2.297-.287 4.661.008 6.992-.068 2.332-.076 4.143-.106 4.134 3.25-.009 3.059-1.233 3.566-3.86 3.49-5.328-.155-10.672-.22-15.993.018-3.171.142-4.38-.678-4.226-4.077.279-6.153.079-12.328.079-18.994zM551.994 870.108c-.136-3.659-.668-6.726 4.496-6.263 3.064.275 3.908 1.042 3.854 4.032-.169 9.461.166 18.936-.164 28.389-.15 4.315 1.361 5.59 5.37 5.108 2.128-.255 4.317.055 6.468-.07 2.5-.146 3.953.238 3.979 3.395.026 3.232-1.527 3.392-3.976 3.341-5.311-.11-10.635-.219-15.936.035-3.231.155-4.23-.804-4.169-4.108.204-11.122.078-22.249.078-33.859z"/><path fill="#1887C5" d="M550.001 376.435c-45.134 0-89.769-.09-134.402.125-4.992.024-6.024-1.446-5.922-6.13.314-14.318.03-28.649.153-42.973.084-9.833 6.284-17.177 15.808-19.038 4.024-.786 7.328-.53 10.582 3.142 8.29 9.35 22.291 9.099 31.064.073 4.902-5.044 9.91-5.108 14.57-.187 9.042 9.55 23.442 9.311 32.265-.535 3.592-4.009 7.118-4.05 10.601-.127 8.96 10.094 23.393 10.282 32.606.426 4.198-4.491 7.106-4.476 11.34.059 9.164 9.817 23.529 9.567 32.582-.567 3.33-3.728 9.45-3.785 12.859-.12 9.966 10.718 23.61 10.599 33.502-.441 1.382-1.542 2.704-2.08 4.675-2.108 11.215-.156 20.109 7.64 20.386 18.913.378 15.315.017 30.647.173 45.97.036 3.568-1.898 3.545-4.43 3.54-17.99-.042-35.979-.022-53.969-.022h-64.443z"/><path fill="#1988C6" d="M382.497 494.002c-4.195.793-2.609-2.09-2.535-3.397.69-12.308 1.511-24.608 2.363-36.905.84-12.13 1.847-24.25 2.62-36.384.715-11.249 5.607-16.787 16.673-17.654 6.627-.52 13.313-.365 19.972-.373 28.165-.033 56.331.075 84.495-.109 4.264-.028 5.784.873 5.671 5.456-.401 16.322-.47 32.656-.394 48.985.017 3.68-1.293 4.514-4.631 4.33-4.486-.25-8.997-.113-13.496-.046-14.287.212-24.771 10.628-25.182 24.966-.256 8.914-.256 8.914-9.359 8.914-20.332 0-40.664.02-60.997-.013-5.032-.009-9.98.394-15.2 2.23zM629.01 491.785c-4.824-.057-9.984 1.335-13.262-.548-3.869-2.222-1.085-7.892-1.665-12.02-1.587-11.292-11.581-20.781-23.105-21.24-5.324-.212-10.667-.205-15.993-.035-2.853.09-4.13-.448-4.092-3.761.2-16.995.21-33.992.112-50.987-.017-3.035.843-3.988 3.93-3.98 34.326.1 68.653-.053 102.978.127 13.338.07 18.366 4.653 19.508 18.053 1.812 21.239 3.077 42.524 4.574 63.789l.993 14.088c-8.653-4.088-17.354-3.488-25.99-3.486-15.83.002-31.66 0-47.987 0z"/><path fill="#1B89C6" d="M519 519.529c25.496 0 50.491-.022 75.487.007 16.585.02 24.444 7.93 24.449 24.513.004 13.33.023 26.662-.007 39.993-.034 14.64-8.367 23.062-22.836 23.069-36.66.015-73.32.016-109.98 0-13.939-.007-22.488-8.192-22.71-22.2-.23-14.493-.218-28.996-.001-43.49.198-13.242 8.337-21.46 21.606-21.804 11.157-.288 22.328-.078 33.992-.088z"/><path fill="#1D8AC6" d="M389.427 585.53c-9.737-12.628-11.048-25.796-3.544-39.468 6.95-12.663 20.748-19.093 35.515-17.1 13.092 1.767 24.253 11.884 27.955 25.34 4.162 15.124-2.512 31.285-16.114 39.018-14.564 8.28-31.238 5.403-43.812-7.79z"/><path fill="#1C89C6" d="M652.23 594.895c-14.651-7.652-21.64-20.148-20.206-35.637 1.212-13.093 11.114-25.131 24.005-29.186 14.17-4.456 29.822.789 38.565 12.922 8.678 12.043 8.76 28.213.203 40.192-8.724 12.213-24.223 17.54-38.46 13.202-1.271-.388-2.503-.9-4.108-1.493z"/><path fill="#1888C5" d="M729.072 589.224c-.273-2.693.802-3.339 2.898-3.317 8.497.09 17.005-.176 25.491.149 7.658.292 14.196 6.94 14.538 14.586.29 6.487-.004 12.997.153 19.492.062 2.546-1.048 3.02-3.277 3.007-12.164-.074-24.33-.101-36.492.016-2.668.026-3.394-.89-3.362-3.46.125-9.997.05-19.996.051-30.473zM345.945 623.11c-10.978 0-21.462-.107-31.942.064-3.1.05-4.026-.947-3.905-3.98.22-5.482-.032-10.98.086-16.47.215-10.085 6.988-16.697 17.134-16.778 7.487-.06 14.977.074 22.462-.06 2.525-.044 3.52.618 3.483 3.328-.137 10.148-.126 20.3-.027 30.449.06 5.991-4.449 2.476-7.291 3.446z"/><path fill="#1E8BC7" d="M529 491.8c-11.655 0-22.815-.176-33.964.094-3.944.095-4.384-1.683-4.101-4.768.268-2.935-1.142-6.447 4.246-6.422 30.63.147 61.263.156 91.893-.01 5.26-.029 4.15 3.289 4.45 6.309.349 3.536-.619 4.939-4.583 4.894-19.145-.216-38.294-.097-57.941-.097z"/><path fill="#1F8BC7" d="M537.286 457.902c-2.806.213-3.172-1.172-3.161-3.106.095-17.49.174-34.981.172-52.472 0-2.454 1.04-2.997 3.302-3.123 10.58-.59 10.592-.659 10.572 9.79-.026 14.16-.31 28.325 0 42.477.11 5.073-1.07 7.42-6.428 6.471-1.292-.229-2.66-.034-4.457-.037z"/><path fill="#29A2F4" d="m330.185 882.267 2.148-10.27c1.018 5.537 1.864 9.85 2.575 14.184.196 1.196 1.005 2.97-.539 3.506-1.435.498-3.39.504-4.76-.091-1.46-.635-.33-2.315-.167-3.528.154-1.138.432-2.258.743-3.801z"/><path fill="#1F8BC7" d="M600.622 881.474c-.276-1.71-.444-3.037-.336-4.341.238-2.893-1.612-6.927 4.25-6.584 4.027.235 6.782.911 6.618 5.723-.159 4.66-1.654 6.104-6.925 6.052-1.126-.011-2.25-.297-3.607-.85zM726.134 888.03c-1.206 3.427-3.812 2.132-5.423 1.583-1.647-.56-.407-2.576-.14-3.936.823-4.213 1.703-8.415 2.787-13.729 1.056 5.996 1.905 10.816 2.776 16.082z"/><path fill="#F0F7F9" d="M492.002 576.696c-4.83 0-9.173-.207-13.485.064-3.46.217-3.596-1.57-3.694-4.24-.108-2.96 1.04-3.573 3.761-3.565 27.146.085 54.292.051 81.437.051 14.49 0 28.978.041 43.467-.037 2.639-.014 4.352.101 4.32 3.594-.03 3.366-1.211 4.197-4.392 4.19-36.971-.089-73.943-.057-111.414-.057z"/><path fill="#F5FAFB" d="M477.355 557.793c-4.342-1.37-2.228-4.536-2.159-6.766.061-1.97 2.412-1.16 3.743-1.162 41.481-.047 82.962-.01 124.443-.095 3.084-.006 4.434.58 4.412 4.065-.022 3.533-1.52 4.027-4.533 4.022-41.814-.076-83.628-.053-125.906-.064z"/><path fill="#FBFDFC" d="M563 587.966c13.821 0 27.142-.013 40.463.023 1.092.003 2.548-.577 3.217.548.813 1.367-.41 2.537-1.163 3.55-2.03 2.731-4.854 3.856-8.245 3.854-37.299-.02-74.597-.012-111.896-.009-5.062 0-8.515-2.188-10.341-7.966H563z"/><path fill="#FEFFFD" d="M553 530.973c14.974 0 29.45.052 43.923-.035 3.584-.022 6.56.96 8.708 3.872.552.748 1.13 1.821 1.01 2.644-.194 1.313-1.583.76-2.483.865-.82.096-1.661.024-2.493.024-40.262 0-80.524.014-120.786-.05-1.669-.002-4.252 1.088-4.88-.981-.701-2.306 1.657-3.736 3.402-4.974 2.006-1.422 4.366-1.378 6.716-1.376 22.128.02 44.255.011 66.883.01z"/><path fill="#FDFEFC" d="M393.026 558.602c3.743-11.91 11.687-18.439 22.25-18.671 10.145-.223 19.03 5.739 22.484 15.087 3.256 8.814.912 18.968-5.829 25.248-6.861 6.392-17.106 8.166-25.518 4.099-9.056-4.38-13.857-11.624-13.74-21.852.012-1.162.194-2.32.353-3.91z"/><path fill="#FCFEFC" d="M679.789 544.082c8.93 7.327 12.062 16.79 8.946 26.298-2.981 9.096-11.397 15.458-21.335 16.13-9.086.613-18.102-4.837-22.105-13.363-4.324-9.21-2.007-20.52 5.604-27.345 7.945-7.125 18.465-7.831 28.89-1.72z"/></svg>